<svg width="440" height="247" viewBox="0 0 440 247" fill="none" xmlns="http://www.w3.org/2000/svg">
<g filter="url(#filter0_d_1_2)">
<mask id="path-1-outside-1_1_2" maskUnits="userSpaceOnUse" x="3" y="-1" width="434" height="241" fill="black">
<rect fill="white" x="3" y="-1" width="434" height="241"/>
<path d="M65.7158 147.25L112.216 11.75C114.882 4.41666 116.549 0.749991 117.216 0.749991C118.549 0.749991 120.882 5.33333 124.216 14.5L178.466 158.5C180.299 163.833 184.466 166.5 190.966 166.5C194.799 166.5 197.632 165 199.466 162C200.132 160.833 200.799 159.667 201.466 158.5C202.132 157.167 202.632 156.5 202.966 156.5C204.466 156.5 205.216 157.5 205.216 159.5C205.216 161.5 202.632 165.083 197.466 170.25C192.299 175.417 185.132 178 175.966 178C164.466 178 156.799 172.917 152.966 162.75L137.716 122H79.4658L69.2158 151.75C65.7158 161.917 61.3825 169 56.2158 173C51.2158 176.833 44.9658 178.75 37.4658 178.75C27.4658 178.75 19.4658 175 13.4658 167.5C7.46582 160 4.46582 151.917 4.46582 143.25C4.46582 134.417 6.71582 127.333 11.2158 122C15.5492 116.667 21.2158 114 28.2158 114C31.5492 114 35.0492 115 38.7158 117C44.2158 120 46.9658 123.167 46.9658 126.5C46.9658 127.833 46.5492 128.5 45.7158 128.5C45.0492 128.5 43.8825 127.667 42.2158 126C37.3825 121.167 32.2992 118.75 26.9658 118.75C21.6325 118.75 17.3825 121.083 14.2158 125.75C11.0492 130.417 9.46582 136.583 9.46582 144.25C9.46582 151.75 12.2992 158.583 17.9658 164.75C23.6325 170.917 30.0492 174 37.2158 174C44.3825 174 49.9658 172.167 53.9658 168.5C58.1325 164.667 62.0492 157.583 65.7158 147.25ZM107.466 40.5L80.9658 117.25H135.966L107.466 40.5ZM302.159 230C308.159 230 313.409 228.167 317.909 224.5C322.409 221 324.659 217.083 324.659 212.75C324.659 203.083 320.659 198.25 312.659 198.25C308.826 198.25 306.576 199.333 305.909 201.5C305.409 203.833 304.576 205 303.409 205C302.243 205 301.659 203.917 301.659 201.75C301.659 199.75 303.076 197.833 305.909 196C308.743 194.167 311.909 193.25 315.409 193.25C319.076 193.25 322.326 194.917 325.159 198.25C328.159 201.583 329.659 206 329.659 211.5C329.659 217.167 327.493 222.5 323.159 227.5C318.826 232.5 312.409 235 303.909 235C295.576 235 288.409 232.75 282.409 228.25C276.576 223.917 272.159 218.917 269.159 213.25C266.159 207.75 262.493 201.25 258.159 193.75C253.826 186.25 249.826 180.5 246.159 176.5C242.493 172.5 239.076 170 235.909 169C232.909 167.833 229.493 167.167 225.659 167C221.826 166.667 219.909 165.833 219.909 164.5C219.909 162.667 222.326 161.75 227.159 161.75C232.159 161.75 238.326 163.583 245.659 167.25V6.99999H226.409C218.576 6.99999 212.743 8.74999 208.909 12.25C205.076 15.5833 203.159 19.5833 203.159 24.25C203.159 28.75 204.326 32.5 206.659 35.5C208.993 38.5 212.076 40 215.909 40C219.909 40 222.826 39.0833 224.659 37.25C226.493 35.4167 227.909 33.6667 228.909 32C229.909 30.1667 230.909 29.25 231.909 29.25C232.909 29.25 233.409 30.5 233.409 33C233.409 35.5 231.493 38.1667 227.659 41C223.993 43.6667 219.659 45 214.659 45C209.659 45 205.659 43.0833 202.659 39.25C199.659 35.4167 198.159 30.6667 198.159 25C198.159 19.1667 200.576 13.9167 205.409 9.24999C210.409 4.41666 217.493 1.99999 226.659 1.99999H270.409V182.25C270.409 194.25 273.159 205.167 278.659 215C284.326 225 292.159 230 302.159 230ZM410.7 186.5V6.99999H391.7C383.867 6.99999 378.034 8.74999 374.2 12.25C370.367 15.5833 368.45 19.5833 368.45 24.25C368.45 28.9167 369.617 32.75 371.95 35.75C374.284 38.5833 377.367 40 381.2 40C385.2 40 388.117 39.0833 389.95 37.25C391.784 35.4167 393.2 33.6667 394.2 32C395.2 30.1667 396.2 29.25 397.2 29.25C398.2 29.25 398.7 30.5 398.7 33C398.7 35.5 396.784 38.1667 392.95 41C389.284 43.6667 384.95 45 379.95 45C374.95 45 370.95 43.0833 367.95 39.25C364.95 35.4167 363.45 30.6667 363.45 25C363.45 19.1667 365.867 13.9167 370.7 9.24999C375.7 4.41666 382.784 1.99999 391.95 1.99999H435.7V180C435.7 190.167 433.95 199.167 430.45 207C426.95 214.833 422.367 221 416.7 225.5C405.534 234.167 393.7 238.5 381.2 238.5C368.867 238.5 358.45 234.5 349.95 226.5C341.617 218.5 337.45 209.583 337.45 199.75C337.45 193.083 339.534 187.583 343.7 183.25C347.7 179.083 351.617 177 355.45 177C359.284 177 362.367 177.75 364.7 179.25C367.2 180.75 368.45 182.417 368.45 184.25C368.45 186.083 368.034 187 367.2 187C366.534 187 365.45 186.167 363.95 184.5C362.617 182.833 359.867 182 355.7 182C351.7 182 348.45 183.75 345.95 187.25C343.284 190.917 341.95 195.25 341.95 200.25C341.95 209.417 346.034 217.25 354.2 223.75C362.367 230.417 369.867 233.75 376.7 233.75C380.034 233.75 382.7 233.667 384.7 233.5C386.7 233.333 389.534 232.417 393.2 230.75C396.867 229.083 399.784 226.667 401.95 223.5C404.284 220.5 406.284 215.833 407.95 209.5C409.784 203.167 410.7 195.5 410.7 186.5Z"/>
</mask>
<path d="M65.7158 147.25L112.216 11.75C114.882 4.41666 116.549 0.749991 117.216 0.749991C118.549 0.749991 120.882 5.33333 124.216 14.5L178.466 158.5C180.299 163.833 184.466 166.5 190.966 166.5C194.799 166.5 197.632 165 199.466 162C200.132 160.833 200.799 159.667 201.466 158.5C202.132 157.167 202.632 156.5 202.966 156.5C204.466 156.5 205.216 157.5 205.216 159.5C205.216 161.5 202.632 165.083 197.466 170.25C192.299 175.417 185.132 178 175.966 178C164.466 178 156.799 172.917 152.966 162.75L137.716 122H79.4658L69.2158 151.75C65.7158 161.917 61.3825 169 56.2158 173C51.2158 176.833 44.9658 178.75 37.4658 178.75C27.4658 178.75 19.4658 175 13.4658 167.5C7.46582 160 4.46582 151.917 4.46582 143.25C4.46582 134.417 6.71582 127.333 11.2158 122C15.5492 116.667 21.2158 114 28.2158 114C31.5492 114 35.0492 115 38.7158 117C44.2158 120 46.9658 123.167 46.9658 126.5C46.9658 127.833 46.5492 128.5 45.7158 128.5C45.0492 128.5 43.8825 127.667 42.2158 126C37.3825 121.167 32.2992 118.75 26.9658 118.75C21.6325 118.75 17.3825 121.083 14.2158 125.75C11.0492 130.417 9.46582 136.583 9.46582 144.25C9.46582 151.75 12.2992 158.583 17.9658 164.75C23.6325 170.917 30.0492 174 37.2158 174C44.3825 174 49.9658 172.167 53.9658 168.5C58.1325 164.667 62.0492 157.583 65.7158 147.25ZM107.466 40.5L80.9658 117.25H135.966L107.466 40.5ZM302.159 230C308.159 230 313.409 228.167 317.909 224.5C322.409 221 324.659 217.083 324.659 212.75C324.659 203.083 320.659 198.25 312.659 198.25C308.826 198.25 306.576 199.333 305.909 201.5C305.409 203.833 304.576 205 303.409 205C302.243 205 301.659 203.917 301.659 201.75C301.659 199.75 303.076 197.833 305.909 196C308.743 194.167 311.909 193.25 315.409 193.25C319.076 193.25 322.326 194.917 325.159 198.25C328.159 201.583 329.659 206 329.659 211.5C329.659 217.167 327.493 222.5 323.159 227.5C318.826 232.5 312.409 235 303.909 235C295.576 235 288.409 232.75 282.409 228.25C276.576 223.917 272.159 218.917 269.159 213.25C266.159 207.75 262.493 201.25 258.159 193.75C253.826 186.25 249.826 180.5 246.159 176.5C242.493 172.5 239.076 170 235.909 169C232.909 167.833 229.493 167.167 225.659 167C221.826 166.667 219.909 165.833 219.909 164.5C219.909 162.667 222.326 161.75 227.159 161.75C232.159 161.75 238.326 163.583 245.659 167.25V6.99999H226.409C218.576 6.99999 212.743 8.74999 208.909 12.25C205.076 15.5833 203.159 19.5833 203.159 24.25C203.159 28.75 204.326 32.5 206.659 35.5C208.993 38.5 212.076 40 215.909 40C219.909 40 222.826 39.0833 224.659 37.25C226.493 35.4167 227.909 33.6667 228.909 32C229.909 30.1667 230.909 29.25 231.909 29.25C232.909 29.25 233.409 30.5 233.409 33C233.409 35.5 231.493 38.1667 227.659 41C223.993 43.6667 219.659 45 214.659 45C209.659 45 205.659 43.0833 202.659 39.25C199.659 35.4167 198.159 30.6667 198.159 25C198.159 19.1667 200.576 13.9167 205.409 9.24999C210.409 4.41666 217.493 1.99999 226.659 1.99999H270.409V182.25C270.409 194.25 273.159 205.167 278.659 215C284.326 225 292.159 230 302.159 230ZM410.7 186.5V6.99999H391.7C383.867 6.99999 378.034 8.74999 374.2 12.25C370.367 15.5833 368.45 19.5833 368.45 24.25C368.45 28.9167 369.617 32.75 371.95 35.75C374.284 38.5833 377.367 40 381.2 40C385.2 40 388.117 39.0833 389.95 37.25C391.784 35.4167 393.2 33.6667 394.2 32C395.2 30.1667 396.2 29.25 397.2 29.25C398.2 29.25 398.7 30.5 398.7 33C398.7 35.5 396.784 38.1667 392.95 41C389.284 43.6667 384.95 45 379.95 45C374.95 45 370.95 43.0833 367.95 39.25C364.95 35.4167 363.45 30.6667 363.45 25C363.45 19.1667 365.867 13.9167 370.7 9.24999C375.7 4.41666 382.784 1.99999 391.95 1.99999H435.7V180C435.7 190.167 433.95 199.167 430.45 207C426.95 214.833 422.367 221 416.7 225.5C405.534 234.167 393.7 238.5 381.2 238.5C368.867 238.5 358.45 234.5 349.95 226.5C341.617 218.5 337.45 209.583 337.45 199.75C337.45 193.083 339.534 187.583 343.7 183.25C347.7 179.083 351.617 177 355.45 177C359.284 177 362.367 177.75 364.7 179.25C367.2 180.75 368.45 182.417 368.45 184.25C368.45 186.083 368.034 187 367.2 187C366.534 187 365.45 186.167 363.95 184.5C362.617 182.833 359.867 182 355.7 182C351.7 182 348.45 183.75 345.95 187.25C343.284 190.917 341.95 195.25 341.95 200.25C341.95 209.417 346.034 217.25 354.2 223.75C362.367 230.417 369.867 233.75 376.7 233.75C380.034 233.75 382.7 233.667 384.7 233.5C386.7 233.333 389.534 232.417 393.2 230.75C396.867 229.083 399.784 226.667 401.95 223.5C404.284 220.5 406.284 215.833 407.95 209.5C409.784 203.167 410.7 195.5 410.7 186.5Z" fill="#D290CF" fill-opacity="0.7" shape-rendering="crispEdges"/>
<path d="M65.7158 147.25L66.6583 147.584L66.6617 147.575L65.7158 147.25ZM112.216 11.75L111.276 11.4083L111.273 11.4168L111.27 11.4254L112.216 11.75ZM124.216 14.5L123.276 14.8418L123.28 14.8525L124.216 14.5ZM178.466 158.5L179.412 158.175L179.407 158.161L179.402 158.147L178.466 158.5ZM199.466 162L200.319 162.521L200.327 162.509L200.334 162.496L199.466 162ZM201.466 158.5L202.334 158.996L202.348 158.972L202.36 158.947L201.466 158.5ZM197.466 170.25L198.173 170.957L198.173 170.957L197.466 170.25ZM152.966 162.75L152.029 163.1L152.03 163.103L152.966 162.75ZM137.716 122L138.652 121.65L138.409 121H137.716V122ZM79.4658 122V121H78.7527L78.5204 121.674L79.4658 122ZM69.2158 151.75L68.2704 151.424L68.2703 151.424L69.2158 151.75ZM56.2158 173L56.8243 173.794L56.828 173.791L56.2158 173ZM13.4658 167.5L14.2467 166.875L14.2467 166.875L13.4658 167.5ZM11.2158 122L11.9801 122.645L11.9861 122.638L11.9919 122.631L11.2158 122ZM38.7158 117L39.1947 116.122L39.1947 116.122L38.7158 117ZM42.2158 126L41.5087 126.707L41.5087 126.707L42.2158 126ZM14.2158 125.75L15.0433 126.312L15.0433 126.312L14.2158 125.75ZM17.9658 164.75L18.7021 164.073L18.7021 164.073L17.9658 164.75ZM53.9658 168.5L54.6415 169.237L54.6429 169.236L53.9658 168.5ZM107.466 40.5L108.403 40.1519L107.432 37.5351L106.521 40.1736L107.466 40.5ZM80.9658 117.25L80.0206 116.924L79.5626 118.25H80.9658V117.25ZM135.966 117.25V118.25H137.404L136.903 116.902L135.966 117.25ZM66.6617 147.575L113.162 12.0746L111.27 11.4254L64.77 146.925L66.6617 147.575ZM113.156 12.0917C114.487 8.43139 115.559 5.71081 116.376 3.9138C116.787 3.01031 117.118 2.37316 117.372 1.97437C117.501 1.77141 117.586 1.66899 117.626 1.62897C117.709 1.54605 117.557 1.74999 117.216 1.74999V-0.250009C116.708 -0.250009 116.358 0.0685148 116.212 0.21476C116.023 0.403912 115.847 0.645236 115.685 0.900617C115.355 1.41849 114.978 2.15634 114.555 3.08619C113.706 4.95584 112.612 7.73527 111.276 11.4083L113.156 12.0917ZM117.216 1.74999C117.094 1.74999 117.073 1.70024 117.176 1.77495C117.275 1.84612 117.424 1.98646 117.622 2.23406C118.018 2.72862 118.503 3.518 119.075 4.64117C120.213 6.87752 121.613 10.2692 123.276 14.8417L125.156 14.1583C123.485 9.56407 122.052 6.0808 120.857 3.73381C120.262 2.56532 119.705 1.63595 119.184 0.984671C118.924 0.659354 118.646 0.37001 118.349 0.154718C118.056 -0.0570262 117.671 -0.250009 117.216 -0.250009V1.74999ZM123.28 14.8525L177.53 158.853L179.402 158.147L125.152 14.1474L123.28 14.8525ZM177.52 158.825C178.499 161.674 180.127 163.871 182.427 165.342C184.714 166.806 187.584 167.5 190.966 167.5V165.5C187.848 165.5 185.384 164.86 183.505 163.658C181.638 162.463 180.266 160.66 179.412 158.175L177.52 158.825ZM190.966 167.5C195.11 167.5 198.285 165.85 200.319 162.521L198.613 161.479C196.98 164.15 194.489 165.5 190.966 165.5V167.5ZM200.334 162.496C200.464 162.268 200.704 161.849 200.834 161.621C200.964 161.393 201.204 160.974 201.334 160.746C201.36 160.701 201.433 160.573 201.459 160.527C201.475 160.499 201.474 160.501 201.49 160.473C201.512 160.434 201.5 160.456 201.522 160.418C201.543 160.38 201.531 160.402 201.553 160.363C201.575 160.325 201.562 160.347 201.584 160.309C201.623 160.241 201.671 160.157 201.709 160.09C201.739 160.038 201.804 159.923 201.834 159.871C201.868 159.811 201.925 159.712 201.959 159.652C201.993 159.593 202.05 159.493 202.084 159.434C202.118 159.374 202.175 159.275 202.209 159.215C202.243 159.155 202.3 159.056 202.334 158.996L200.598 158.004C200.29 158.542 199.905 159.215 199.598 159.754C199.575 159.794 199.496 159.932 199.473 159.973C199.453 160.006 199.367 160.158 199.348 160.191C199.33 160.222 199.24 160.38 199.223 160.41C199.205 160.44 199.115 160.599 199.098 160.629C199.08 160.659 198.99 160.817 198.973 160.848C198.955 160.878 198.865 161.036 198.848 161.066C198.83 161.097 198.74 161.255 198.723 161.285C198.705 161.315 198.615 161.474 198.598 161.504L200.334 162.496ZM202.36 158.947C202.684 158.299 202.944 157.862 203.141 157.6C203.24 157.468 203.297 157.416 203.309 157.406C203.336 157.385 203.211 157.5 202.966 157.5V155.5C202.554 155.5 202.242 155.698 202.06 155.844C201.864 156.001 201.692 156.199 201.541 156.4C201.237 156.805 200.914 157.367 200.571 158.053L202.36 158.947ZM202.966 157.5C203.472 157.5 203.706 157.653 203.853 157.85C204.041 158.101 204.216 158.596 204.216 159.5H206.216C206.216 158.404 206.015 157.399 205.453 156.65C204.851 155.847 203.96 155.5 202.966 155.5V157.5ZM204.216 159.5C204.216 159.798 204.115 160.247 203.824 160.877C203.537 161.498 203.09 162.238 202.467 163.103C201.22 164.832 199.325 166.976 196.759 169.543L198.173 170.957C200.773 168.357 202.753 166.126 204.09 164.272C204.758 163.345 205.281 162.492 205.639 161.717C205.993 160.951 206.216 160.202 206.216 159.5H204.216ZM196.759 169.543C191.825 174.477 184.939 177 175.966 177V179C185.326 179 192.774 176.356 198.173 170.957L196.759 169.543ZM175.966 177C170.363 177 165.776 175.763 162.143 173.354C158.515 170.948 155.758 167.321 153.902 162.397L152.03 163.103C154.007 168.346 157 172.343 161.038 175.021C165.072 177.696 170.068 179 175.966 179V177ZM153.902 162.4L138.652 121.65L136.779 122.35L152.029 163.1L153.902 162.4ZM137.716 121H79.4658V123H137.716V121ZM78.5204 121.674L68.2704 151.424L70.1613 152.076L80.4113 122.326L78.5204 121.674ZM68.2703 151.424C64.7968 161.514 60.546 168.383 55.6036 172.209L56.828 173.791C62.219 169.617 66.6349 162.319 70.1614 152.076L68.2703 151.424ZM55.6074 172.206C50.8135 175.882 44.7891 177.75 37.4658 177.75V179.75C45.1425 179.75 51.6182 177.785 56.8243 173.794L55.6074 172.206ZM37.4658 177.75C27.7551 177.75 20.0481 174.127 14.2467 166.875L12.685 168.125C18.8836 175.873 27.1765 179.75 37.4658 179.75V177.75ZM14.2467 166.875C8.37224 159.532 5.46582 151.665 5.46582 143.25H3.46582C3.46582 152.169 6.5594 160.468 12.685 168.125L14.2467 166.875ZM5.46582 143.25C5.46582 134.588 7.66925 127.754 11.9801 122.645L10.4515 121.355C5.76239 126.913 3.46582 134.245 3.46582 143.25H5.46582ZM11.9919 122.631C16.1313 117.536 21.5104 115 28.2158 115V113C20.9212 113 14.967 115.797 10.4397 121.369L11.9919 122.631ZM28.2158 115C31.3447 115 34.6807 115.938 38.237 117.878L39.1947 116.122C35.4176 114.062 31.7536 113 28.2158 113V115ZM38.237 117.878C43.6954 120.855 45.9658 123.767 45.9658 126.5H47.9658C47.9658 122.566 44.7363 119.145 39.1947 116.122L38.237 117.878ZM45.9658 126.5C45.9658 127.095 45.867 127.371 45.8053 127.47C45.7835 127.505 45.7774 127.501 45.7921 127.493C45.8043 127.486 45.789 127.5 45.7158 127.5V129.5C46.4523 129.5 47.0974 129.176 47.5013 128.53C47.8563 127.962 47.9658 127.238 47.9658 126.5H45.9658ZM45.7158 127.5C45.724 127.5 45.4923 127.469 44.9221 127.061C44.4028 126.69 43.7387 126.109 42.9229 125.293L41.5087 126.707C42.3596 127.558 43.1122 128.226 43.7596 128.689C44.356 129.115 45.0409 129.5 45.7158 129.5V127.5ZM42.9229 125.293C37.9574 120.327 32.6335 117.75 26.9658 117.75V119.75C31.9648 119.75 36.8076 122.006 41.5087 126.707L42.9229 125.293ZM26.9658 117.75C21.279 117.75 16.7284 120.266 13.3883 125.188L15.0433 126.312C18.0366 121.9 21.9859 119.75 26.9658 119.75V117.75ZM13.3883 125.188C10.0754 130.071 8.46582 136.453 8.46582 144.25H10.4658C10.4658 136.713 12.0229 130.763 15.0433 126.312L13.3883 125.188ZM8.46582 144.25C8.46582 152.03 11.4146 159.099 17.2295 165.427L18.7021 164.073C13.1837 158.068 10.4658 151.47 10.4658 144.25H8.46582ZM17.2295 165.427C23.0506 171.761 29.7215 175 37.2158 175V173C30.3768 173 24.2144 170.072 18.7021 164.073L17.2295 165.427ZM37.2158 175C44.5506 175 50.4044 173.121 54.6415 169.237L53.2901 167.763C49.5272 171.212 44.2144 173 37.2158 173V175ZM54.6429 169.236C58.9964 165.231 62.9791 157.953 66.6583 147.584L64.7734 146.916C61.1192 157.214 57.2686 164.103 53.2888 167.764L54.6429 169.236ZM106.521 40.1736L80.0206 116.924L81.9111 117.576L108.411 40.8264L106.521 40.1736ZM80.9658 118.25H135.966V116.25H80.9658V118.25ZM136.903 116.902L108.403 40.1519L106.528 40.8481L135.028 117.598L136.903 116.902ZM317.909 224.5L317.295 223.711L317.286 223.718L317.278 223.725L317.909 224.5ZM305.909 201.5L304.953 201.206L304.941 201.248L304.931 201.29L305.909 201.5ZM305.909 196L305.366 195.16L305.366 195.16L305.909 196ZM325.159 198.25L324.397 198.898L324.406 198.908L324.416 198.919L325.159 198.25ZM323.159 227.5L322.403 226.845L322.403 226.845L323.159 227.5ZM282.409 228.25L283.009 227.45L283.006 227.447L282.409 228.25ZM269.159 213.25L270.043 212.782L270.037 212.771L269.159 213.25ZM258.159 193.75L257.293 194.25L257.293 194.25L258.159 193.75ZM246.159 176.5L245.422 177.176L245.422 177.176L246.159 176.5ZM235.909 169L235.547 169.932L235.577 169.944L235.608 169.954L235.909 169ZM225.659 167L225.573 167.996L225.594 167.998L225.616 167.999L225.659 167ZM245.659 167.25L245.212 168.144L246.659 168.868V167.25H245.659ZM245.659 6.99999H246.659V5.99999H245.659V6.99999ZM208.909 12.25L209.565 13.0046L209.575 12.9966L209.583 12.9885L208.909 12.25ZM224.659 37.25L225.366 37.9571L225.366 37.9571L224.659 37.25ZM228.909 32L229.767 32.5145L229.777 32.4969L229.787 32.4788L228.909 32ZM227.659 41L228.247 41.8088L228.254 41.8042L227.659 41ZM202.659 39.25L201.872 39.8663L201.872 39.8663L202.659 39.25ZM205.409 9.24999L206.104 9.96939L206.104 9.96897L205.409 9.24999ZM270.409 1.99999H271.409V0.99999H270.409V1.99999ZM278.659 215L277.786 215.488L277.789 215.493L278.659 215ZM302.159 231C308.381 231 313.856 229.093 318.541 225.275L317.278 223.725C312.962 227.241 307.937 229 302.159 229V231ZM318.523 225.289C323.183 221.665 325.659 217.484 325.659 212.75H323.659C323.659 216.683 321.635 220.335 317.295 223.711L318.523 225.289ZM325.659 212.75C325.659 207.804 324.64 203.908 322.43 201.237C320.189 198.531 316.868 197.25 312.659 197.25V199.25C316.45 199.25 319.129 200.386 320.889 202.513C322.679 204.675 323.659 208.03 323.659 212.75H325.659ZM312.659 197.25C308.735 197.25 305.828 198.362 304.953 201.206L306.865 201.794C307.323 200.305 308.917 199.25 312.659 199.25V197.25ZM304.931 201.29C304.693 202.401 304.397 203.122 304.095 203.544C303.818 203.932 303.594 204 303.409 204V206C304.391 206 305.167 205.485 305.723 204.706C306.255 203.961 306.625 202.933 306.887 201.71L304.931 201.29ZM303.409 204C303.278 204 303.21 203.972 303.17 203.947C303.127 203.92 303.056 203.86 302.977 203.713C302.803 203.39 302.659 202.776 302.659 201.75H300.659C300.659 202.89 300.807 203.902 301.216 204.662C301.429 205.056 301.723 205.403 302.117 205.647C302.514 205.893 302.957 206 303.409 206V204ZM302.659 201.75C302.659 200.272 303.706 198.617 306.452 196.84L305.366 195.16C302.446 197.05 300.659 199.228 300.659 201.75H302.659ZM306.452 196.84C309.118 195.115 312.094 194.25 315.409 194.25V192.25C311.724 192.25 308.367 193.218 305.366 195.16L306.452 196.84ZM315.409 194.25C318.725 194.25 321.713 195.74 324.397 198.898L325.921 197.602C322.938 194.093 319.426 192.25 315.409 192.25V194.25ZM324.416 198.919C327.215 202.029 328.659 206.189 328.659 211.5H330.659C330.659 205.811 329.103 201.137 325.902 197.581L324.416 198.919ZM328.659 211.5C328.659 216.887 326.607 221.995 322.403 226.845L323.915 228.155C328.378 223.005 330.659 217.447 330.659 211.5H328.659ZM322.403 226.845C318.311 231.567 312.208 234 303.909 234V236C312.611 236 319.34 233.433 323.915 228.155L322.403 226.845ZM303.909 234C295.767 234 288.817 231.806 283.009 227.45L281.809 229.05C288.001 233.694 295.385 236 303.909 236V234ZM283.006 227.447C277.276 223.191 272.965 218.301 270.043 212.782L268.275 213.718C271.354 219.533 275.876 224.642 281.813 229.053L283.006 227.447ZM270.037 212.771C267.032 207.262 263.361 200.754 259.025 193.25L257.293 194.25C261.624 201.746 265.286 208.238 268.281 213.729L270.037 212.771ZM259.025 193.25C254.674 185.719 250.632 179.9 246.896 175.824L245.422 177.176C249.019 181.1 252.978 186.781 257.293 194.25L259.025 193.25ZM246.896 175.824C243.178 171.768 239.619 169.123 236.21 168.046L235.608 169.954C238.533 170.877 241.807 173.232 245.422 177.176L246.896 175.824ZM236.272 168.068C233.152 166.855 229.625 166.171 225.703 166.001L225.616 167.999C229.36 168.162 232.666 168.812 235.547 169.932L236.272 168.068ZM225.746 166.004C223.862 165.84 222.554 165.559 221.745 165.208C220.919 164.849 220.909 164.565 220.909 164.5H218.909C218.909 165.768 219.857 166.568 220.948 167.042C222.056 167.524 223.623 167.827 225.573 167.996L225.746 166.004ZM220.909 164.5C220.909 164.284 220.972 164.118 221.113 163.957C221.273 163.776 221.566 163.566 222.076 163.372C223.112 162.98 224.777 162.75 227.159 162.75V160.75C224.708 160.75 222.748 160.979 221.367 161.503C220.669 161.767 220.056 162.13 219.611 162.637C219.148 163.163 218.909 163.799 218.909 164.5H220.909ZM227.159 162.75C231.935 162.75 237.939 164.508 245.212 168.144L246.106 166.356C238.713 162.659 232.383 160.75 227.159 160.75V162.75ZM246.659 167.25V6.99999H244.659V167.25H246.659ZM245.659 5.99999H226.409V7.99999H245.659V5.99999ZM226.409 5.99999C218.45 5.99999 212.327 7.77528 208.235 11.5115L209.583 12.9885C213.158 9.7247 218.702 7.99999 226.409 7.99999V5.99999ZM208.253 11.4954C204.223 14.9997 202.159 19.2662 202.159 24.25H204.159C204.159 19.9005 205.929 16.167 209.565 13.0046L208.253 11.4954ZM202.159 24.25C202.159 28.9299 203.376 32.9076 205.87 36.1139L207.449 34.8861C205.276 32.0924 204.159 28.5701 204.159 24.25H202.159ZM205.87 36.1139C208.395 39.36 211.77 41 215.909 41V39C212.381 39 209.591 37.64 207.449 34.8861L205.87 36.1139ZM215.909 41C220.034 41 223.265 40.0583 225.366 37.9571L223.952 36.5429C222.387 38.1084 219.785 39 215.909 39V41ZM225.366 37.9571C227.24 36.0839 228.713 34.2701 229.767 32.5145L228.052 31.4855C227.105 33.0632 225.746 34.7494 223.952 36.5429L225.366 37.9571ZM229.787 32.4788C230.26 31.6125 230.697 31.0298 231.085 30.6747C231.467 30.3243 231.737 30.25 231.909 30.25V28.25C231.081 28.25 230.351 28.634 229.733 29.2003C229.121 29.7619 228.559 30.5542 228.031 31.5211L229.787 32.4788ZM231.909 30.25C231.931 30.25 231.922 30.25 231.925 30.2526C231.946 30.2699 232.02 30.345 232.106 30.5589C232.284 31.004 232.409 31.7872 232.409 33H234.409C234.409 31.7128 234.285 30.621 233.963 29.8161C233.798 29.405 233.56 29.0113 233.206 28.7162C232.834 28.4062 232.387 28.25 231.909 28.25V30.25ZM232.409 33C232.409 34.9867 230.859 37.3917 227.065 40.1958L228.254 41.8042C232.126 38.9416 234.409 36.0133 234.409 33H232.409ZM227.071 40.1913C223.593 42.7208 219.471 44 214.659 44V46C219.848 46 224.392 44.6125 228.247 41.8087L227.071 40.1913ZM214.659 44C209.957 44 206.251 42.2172 203.447 38.6337L201.872 39.8663C205.067 43.9494 209.361 46 214.659 46V44ZM203.447 38.6337C200.606 35.0042 199.159 30.4815 199.159 25H197.159C197.159 30.8518 198.712 35.8291 201.872 39.8663L203.447 38.6337ZM199.159 25C199.159 19.4798 201.433 14.4788 206.104 9.96939L204.715 8.53058C199.718 13.3545 197.159 18.8535 197.159 25H199.159ZM206.104 9.96897C210.864 5.36748 217.667 2.99999 226.659 2.99999V0.99999C217.318 0.99999 209.954 3.46583 204.714 8.531L206.104 9.96897ZM226.659 2.99999H270.409V0.99999H226.659V2.99999ZM269.409 1.99999V182.25H271.409V1.99999H269.409ZM269.409 182.25C269.409 194.409 272.198 205.496 277.786 215.488L279.532 214.512C274.121 204.837 271.409 194.091 271.409 182.25H269.409ZM277.789 215.493C283.602 225.75 291.739 231 302.159 231V229C292.58 229 285.05 224.25 279.529 214.507L277.789 215.493ZM410.7 6.99999H411.7V5.99999H410.7V6.99999ZM374.2 12.25L374.856 13.0046L374.866 12.9966L374.874 12.9885L374.2 12.25ZM371.95 35.75L371.161 36.3639L371.169 36.3749L371.178 36.3857L371.95 35.75ZM389.95 37.25L390.657 37.9571L390.657 37.9571L389.95 37.25ZM394.2 32L395.058 32.5145L395.068 32.4969L395.078 32.4788L394.2 32ZM392.95 41L393.538 41.8088L393.545 41.8042L392.95 41ZM370.7 9.24999L371.395 9.96939L371.395 9.96897L370.7 9.24999ZM435.7 1.99999H436.7V0.99999H435.7V1.99999ZM416.7 225.5L417.313 226.29L417.322 226.283L416.7 225.5ZM349.95 226.5L349.258 227.221L349.265 227.228L349.95 226.5ZM343.7 183.25L344.421 183.943L344.422 183.943L343.7 183.25ZM364.7 179.25L364.159 180.091L364.172 180.1L364.186 180.107L364.7 179.25ZM363.95 184.5L363.169 185.125L363.187 185.147L363.207 185.169L363.95 184.5ZM345.95 187.25L346.759 187.838L346.764 187.831L345.95 187.25ZM354.2 223.75L354.833 222.975L354.823 222.968L354.2 223.75ZM384.7 233.5L384.617 232.503L384.617 232.503L384.7 233.5ZM401.95 223.5L401.161 222.886L401.142 222.91L401.125 222.935L401.95 223.5ZM407.95 209.5L406.99 209.222L406.986 209.234L406.983 209.246L407.95 209.5ZM411.7 186.5V6.99999H409.7V186.5H411.7ZM410.7 5.99999H391.7V7.99999H410.7V5.99999ZM391.7 5.99999C383.741 5.99999 377.618 7.77528 373.526 11.5115L374.874 12.9885C378.449 9.7247 383.993 7.99999 391.7 7.99999V5.99999ZM373.544 11.4954C369.514 14.9997 367.45 19.2662 367.45 24.25H369.45C369.45 19.9005 371.22 16.167 374.856 13.0046L373.544 11.4954ZM367.45 24.25C367.45 29.0871 368.662 33.1514 371.161 36.3639L372.74 35.136C370.572 32.3486 369.45 28.7462 369.45 24.25H367.45ZM371.178 36.3857C373.711 39.4612 377.083 41 381.2 41V39C377.65 39 374.856 37.7054 372.722 35.1143L371.178 36.3857ZM381.2 41C385.325 41 388.556 40.0583 390.657 37.9571L389.243 36.5429C387.678 38.1084 385.076 39 381.2 39V41ZM390.657 37.9571C392.531 36.0839 394.004 34.2701 395.058 32.5145L393.343 31.4855C392.396 33.0632 391.037 34.7494 389.243 36.5429L390.657 37.9571ZM395.078 32.4788C395.551 31.6125 395.989 31.0298 396.376 30.6747C396.758 30.3243 397.028 30.25 397.2 30.25V28.25C396.372 28.25 395.642 28.634 395.024 29.2003C394.412 29.7619 393.85 30.5542 393.322 31.5211L395.078 32.4788ZM397.2 30.25C397.222 30.25 397.213 30.25 397.216 30.2526C397.237 30.2699 397.311 30.345 397.397 30.5589C397.575 31.004 397.7 31.7872 397.7 33H399.7C399.7 31.7128 399.576 30.621 399.254 29.8161C399.089 29.405 398.851 29.0113 398.497 28.7162C398.125 28.4062 397.678 28.25 397.2 28.25V30.25ZM397.7 33C397.7 34.9867 396.15 37.3917 392.356 40.1958L393.545 41.8042C397.417 38.9416 399.7 36.0133 399.7 33H397.7ZM392.362 40.1913C388.884 42.7208 384.762 44 379.95 44V46C385.139 46 389.683 44.6125 393.538 41.8087L392.362 40.1913ZM379.95 44C375.248 44 371.542 42.2172 368.738 38.6337L367.163 39.8663C370.358 43.9494 374.652 46 379.95 46V44ZM368.738 38.6337C365.897 35.0042 364.45 30.4815 364.45 25H362.45C362.45 30.8518 364.003 35.8291 367.163 39.8663L368.738 38.6337ZM364.45 25C364.45 19.4798 366.724 14.4788 371.395 9.96939L370.006 8.53058C365.009 13.3545 362.45 18.8535 362.45 25H364.45ZM371.395 9.96897C376.155 5.36748 382.958 2.99999 391.95 2.99999V0.99999C382.609 0.99999 375.245 3.46583 370.005 8.531L371.395 9.96897ZM391.95 2.99999H435.7V0.99999H391.95V2.99999ZM434.7 1.99999V180H436.7V1.99999H434.7ZM434.7 180C434.7 190.052 432.97 198.909 429.537 206.592L431.363 207.408C434.93 199.425 436.7 190.282 436.7 180H434.7ZM429.537 206.592C426.091 214.306 421.598 220.334 416.078 224.717L417.322 226.283C423.136 221.666 427.81 215.361 431.363 207.408L429.537 206.592ZM416.087 224.71C405.072 233.259 393.449 237.5 381.2 237.5V239.5C393.951 239.5 405.995 235.074 417.313 226.29L416.087 224.71ZM381.2 237.5C369.106 237.5 358.939 233.587 350.636 225.772L349.265 227.228C357.962 235.413 368.628 239.5 381.2 239.5V237.5ZM350.643 225.779C342.469 217.931 338.45 209.263 338.45 199.75H336.45C336.45 209.903 340.765 219.069 349.258 227.221L350.643 225.779ZM338.45 199.75C338.45 193.311 340.454 188.069 344.421 183.943L342.979 182.557C338.613 187.098 336.45 192.856 336.45 199.75H338.45ZM344.422 183.943C348.328 179.873 352.001 178 355.45 178V176C351.233 176 347.073 178.293 342.979 182.557L344.422 183.943ZM355.45 178C359.162 178 362.038 178.727 364.159 180.091L365.241 178.409C362.696 176.773 359.405 176 355.45 176V178ZM364.186 180.107C366.572 181.539 367.45 182.942 367.45 184.25H369.45C369.45 181.892 367.829 179.961 365.215 178.393L364.186 180.107ZM367.45 184.25C367.45 185.122 367.346 185.637 367.227 185.899C367.173 186.017 367.138 186.034 367.156 186.022C367.184 186.001 367.213 186 367.2 186V188C367.604 188 367.997 187.885 368.338 187.635C368.668 187.393 368.894 187.066 369.048 186.726C369.346 186.071 369.45 185.211 369.45 184.25H367.45ZM367.2 186C367.223 186 367.016 185.982 366.497 185.582C366.025 185.219 365.425 184.644 364.693 183.831L363.207 185.169C363.975 186.023 364.667 186.698 365.278 187.168C365.842 187.602 366.511 188 367.2 188V186ZM364.731 183.875C363.089 181.823 359.908 181 355.7 181V183C359.826 183 362.145 183.844 363.169 185.125L364.731 183.875ZM355.7 181C351.35 181 347.808 182.929 345.136 186.669L346.764 187.831C349.093 184.571 352.051 183 355.7 183V181ZM345.141 186.662C342.338 190.517 340.95 195.061 340.95 200.25H342.95C342.95 195.439 344.229 191.316 346.759 187.838L345.141 186.662ZM340.95 200.25C340.95 209.766 345.21 217.872 353.577 224.532L354.823 222.968C346.857 216.628 342.95 209.067 342.95 200.25H340.95ZM353.568 224.525C361.821 231.262 369.54 234.75 376.7 234.75V232.75C370.193 232.75 362.913 229.571 354.833 222.975L353.568 224.525ZM376.7 234.75C380.046 234.75 382.744 234.667 384.783 234.497L384.617 232.503C382.657 232.667 380.021 232.75 376.7 232.75V234.75ZM384.783 234.497C386.963 234.315 389.926 233.337 393.614 231.66L392.786 229.84C389.141 231.497 386.438 232.352 384.617 232.503L384.783 234.497ZM393.614 231.66C397.438 229.922 400.501 227.39 402.776 224.065L401.125 222.935C399.067 225.944 396.296 228.245 392.786 229.84L393.614 231.66ZM402.74 224.114C405.195 220.957 407.238 216.138 408.917 209.754L406.983 209.246C405.33 215.529 403.372 220.043 401.161 222.886L402.74 224.114ZM408.911 209.778C410.778 203.328 411.7 195.562 411.7 186.5H409.7C409.7 195.438 408.789 203.005 406.99 209.222L408.911 209.778Z" fill="#111111" fill-opacity="0.47451" mask="url(#path-1-outside-1_1_2)"/>
</g>
<defs>
<filter id="filter0_d_1_2" x="0.46582" y="0.75" width="439.234" height="245.75" filterUnits="userSpaceOnUse" color-interpolation-filters="sRGB">
<feFlood flood-opacity="0" result="BackgroundImageFix"/>
<feColorMatrix in="SourceAlpha" type="matrix" values="0 0 0 0 0 0 0 0 0 0 0 0 0 0 0 0 0 0 127 0" result="hardAlpha"/>
<feOffset dy="4"/>
<feGaussianBlur stdDeviation="2"/>
<feComposite in2="hardAlpha" operator="out"/>
<feColorMatrix type="matrix" values="0 0 0 0 0 0 0 0 0 0 0 0 0 0 0 0 0 0 0.25 0"/>
<feBlend mode="normal" in2="BackgroundImageFix" result="effect1_dropShadow_1_2"/>
<feBlend mode="normal" in="SourceGraphic" in2="effect1_dropShadow_1_2" result="shape"/>
</filter>
</defs>
</svg>
